<?xml version="1.0" encoding="iso-8859-1"?>
<!-- Uploaded to: SVG Repo, www.svgrepo.com, Generator: SVG Repo Mixer Tools -->
<!DOCTYPE svg PUBLIC "-//W3C//DTD SVG 1.1//EN" "http://www.w3.org/Graphics/SVG/1.1/DTD/svg11.dtd">
<svg fill="currentColor" height="800px" width="800px" version="1.1" id="Capa_1" xmlns="http://www.w3.org/2000/svg" xmlns:xlink="http://www.w3.org/1999/xlink" 
	 viewBox="0 0 297 297" xml:space="preserve">
<path d="M231.81,207.314c52.317-52.318,54.186-136.265,5.622-190.852c3.475-3.88,3.359-9.84-0.369-13.568
	c-3.861-3.859-10.117-3.859-13.978,0l-22.146,22.145C182.45,10.119,158.951,1.17,133.397,1.17
	c-59.402,0-107.729,48.328-107.729,107.731c0,25.553,8.948,49.052,23.869,67.541l-22.146,22.147c-3.859,3.859-3.859,10.118,0,13.977
	c1.931,1.93,4.459,2.895,6.989,2.895c2.357,0,4.707-0.85,6.579-2.525c26.278,23.379,59.356,35.076,92.439,35.076
	c1.751,0,3.503-0.043,5.253-0.108v29.33h-22.732c-5.458,0-9.884,4.425-9.884,9.884c0,5.458,4.426,9.883,9.884,9.883h65.231
	c5.458,0,9.884-4.425,9.884-9.883c0-5.459-4.426-9.884-9.884-9.884h-22.732v-31.48C185.321,240.875,211.056,228.068,231.81,207.314z
	 M221.361,108.901c0,20.698-7.189,39.746-19.198,54.787l-13.05-13.05c14.93-16.717,25.847-35.479,31.39-53.995
	C221.064,100.65,221.361,104.742,221.361,108.901z M146.205,107.73l54.697-54.697c10.293,19.76-0.245,54.469-25.8,83.595
	L146.205,107.73z M161.129,150.61c-21.049,18.479-45.585,29.68-65.776,29.68c-5.155,0-11.795-0.792-17.814-3.894l54.688-54.688
	L161.129,150.61z M186.014,39.965l-53.787,53.787l-26.561-26.561c21.049-18.479,45.584-29.681,65.775-29.681
	C175.685,37.511,180.934,38.051,186.014,39.965z M118.249,107.73l-53.808,53.808c-7.695-20.158,3.038-52.767,27.251-80.364
	L118.249,107.73z M175.139,164.619l13.046,13.047c-15.04,12.009-34.088,19.199-54.787,19.199c-4.14,0-8.212-0.295-12.202-0.851
	C139.481,190.537,158.276,179.68,175.139,164.619z M145.597,21.788c-18.284,5.478-37.08,16.335-53.94,31.395L78.61,40.136
	c15.041-12.008,34.089-19.198,54.787-19.198C137.536,20.937,141.607,21.231,145.597,21.788z M64.633,54.114l13.048,13.048
	C62.753,83.88,51.835,102.64,46.293,121.156c-0.561-4.007-0.858-8.096-0.858-12.255C45.435,88.202,52.625,69.154,64.633,54.114z
	 M54.986,198.948l8.169-8.169c0.51,0.354,1.02,0.708,1.544,1.042c18.661,15.487,42.61,24.811,68.698,24.811
	c59.402,0,107.73-48.328,107.73-107.73c0-26.059-9.301-49.983-24.756-68.635c-0.35-0.549-0.711-1.088-1.083-1.621l8.157-8.156
	c40.854,46.853,38.987,118.245-5.613,162.847c-23.282,23.281-53.854,34.921-84.435,34.918
	C105.393,228.251,77.384,218.478,54.986,198.948z"/>
</svg>